<?xml version="1.0" encoding="utf-8"?>
<!-- Generator: Adobe Illustrator 25.2.1, SVG Export Plug-In . SVG Version: 6.00 Build 0)  -->
<svg version="1.1" id="Layer_1" xmlns="http://www.w3.org/2000/svg" xmlns:xlink="http://www.w3.org/1999/xlink" x="0px" y="0px"
	 viewBox="0 0 216 270" style="enable-background:new 0 0 216 270;" xml:space="preserve">
<style type="text/css">
	.st0{fill:#553822;}
	.st1{fill:#8E3337;}
	.st2{fill:#FFFFFF;}
</style>
<g>
	<rect x="9" y="129.85" class="st0" width="198" height="25.09"/>
	<g>
		<g>
			<g>
				<path class="st1" d="M122.39,79.22c1.18,0,2.59-0.36,3.64-0.91c1.14,2.95,4.24,6.81,4.24,20.81v22.04c0,0.7,0.57,1.27,1.27,1.27
					h6.25c0.7,0,1.27-0.57,1.27-1.27V99.13c0-14,3.11-17.86,4.24-20.81c1.05,0.55,2.46,0.91,3.64,0.91h14.85
					c0-5.87,0.01-14.68,0-17.26c-0.15-28.3-7.88-49.64-27.12-52.97c-19.25,3.33-26.97,24.67-27.12,52.97c-0.01,2.58,0,11.38,0,17.26
					H122.39z"/>
			</g>
			<path class="st1" d="M88.88,62.01c0-3.63-0.54-51.84,2.02-51.84c3.92,0,4.92,48.18,5.09,51.8c0.34,7.38,0.45,19.06-5.34,25.2
				c-5.57,5.9-8.86,10.78-8.86,22.02v11.98c0,0.7-0.57,1.27-1.27,1.27H73.1c-0.7,0-1.27-0.57-1.27-1.27v-11.98
				c0-11.24-3.29-16.12-8.86-22.02c-5.79-6.14-5.68-17.82-5.34-25.2c0.17-3.62,1.16-51.8,5.09-51.8c2.56,0,2.02,48.21,2.02,51.84
				c0,1.49,0.89,2.69,1.99,2.69s1.99-1.21,1.99-2.69c0-3.63,0.49-51.84,3.05-51.84c2.56,0,3.05,48.21,3.05,51.84
				c0,1.49,0.89,2.69,1.99,2.69s1.99-1.21,1.99-2.69c0-3.63,0.49-51.84,3.05-51.84s3.05,48.21,3.05,51.84
				c0,1.49,0.89,2.69,1.99,2.69S88.88,63.5,88.88,62.01"/>
		</g>
	</g>
	<g>
		<path class="st0" d="M11.21,168.43c0-0.46,0.42-0.88,0.88-0.88l5.5,0c0.51,0,0.88,0.42,0.88,0.88l-0.01,11.62l13.21,0.01
			l0.01-11.62c0-0.46,0.37-0.88,0.88-0.88l5.5,0c0.46,0,0.88,0.42,0.88,0.88l-0.03,30.54c0,0.46-0.42,0.88-0.88,0.88l-5.5,0
			c-0.51,0-0.88-0.42-0.88-0.88l0.01-12.13l-13.21-0.01l-0.01,12.13c0,0.46-0.37,0.88-0.88,0.88l-5.5,0c-0.46,0-0.88-0.42-0.88-0.88
			L11.21,168.43z"/>
		<path class="st0" d="M41.86,198.67l14.48-31.03c0.14-0.28,0.46-0.51,0.79-0.51l0.46,0c0.32,0,0.65,0.23,0.78,0.51l14.43,31.06
			c0.28,0.6-0.09,1.2-0.79,1.2l-5.13,0c-0.83,0-1.2-0.28-1.62-1.16l-1.66-3.65l-12.56-0.01l-1.67,3.69
			c-0.23,0.55-0.74,1.11-1.66,1.11l-5.08,0C41.95,199.87,41.59,199.27,41.86,198.67z M60.85,188.81l-3.5-7.61H57.3l-3.47,7.61
			L60.85,188.81z"/>
		<path class="st0" d="M75.78,168.48c0-0.46,0.37-0.88,0.88-0.88l13.81,0.01c5.54,0,10.06,4.48,10.06,9.97
			c0,4.24-2.82,7.66-6.84,9.27l6.32,11.72c0.32,0.6,0,1.34-0.79,1.34l-6.14-0.01c-0.37,0-0.65-0.23-0.74-0.42l-6.13-12.23l-3.19,0
			l-0.01,11.76c0,0.46-0.42,0.88-0.88,0.88l-5.5,0c-0.51,0-0.88-0.42-0.88-0.88L75.78,168.48z M89.86,181.41
			c1.89,0,3.51-1.75,3.51-3.69c0-1.94-1.61-3.51-3.51-3.51l-6.84-0.01l-0.01,7.2L89.86,181.41z"/>
		<path class="st0" d="M101.2,168.82c-0.28-0.6,0.09-1.2,0.79-1.2l6.14,0c0.37,0,0.69,0.28,0.78,0.51l7.61,16.84h0.28l7.64-16.83
			c0.09-0.23,0.42-0.51,0.78-0.51l6.14,0.01c0.69,0,1.06,0.6,0.78,1.2l-14.53,31.03c-0.14,0.28-0.42,0.51-0.78,0.51h-0.46
			c-0.37,0-0.65-0.23-0.78-0.51L101.2,168.82z"/>
		<path class="st0" d="M135.09,168.53c0-0.46,0.37-0.88,0.88-0.88l19.12,0.02c0.51,0,0.88,0.42,0.88,0.88l0,5.03
			c0,0.46-0.37,0.88-0.88,0.88l-12.79-0.01l0,5.72l10.53,0.01c0.46,0,0.88,0.42,0.88,0.88l0,5.03c0,0.51-0.42,0.88-0.88,0.88
			l-10.53-0.01l-0.01,6.23l12.79,0.01c0.51,0,0.88,0.42,0.88,0.88l0,5.03c0,0.46-0.37,0.88-0.88,0.88l-19.12-0.02
			c-0.51,0-0.88-0.42-0.88-0.88L135.09,168.53z"/>
		<path class="st0" d="M159.81,195.58l2.17-3.83c0.37-0.6,1.25-0.51,1.57-0.28c0.18,0.09,3.51,2.54,6.56,2.54
			c1.85,0,3.19-1.15,3.19-2.76c0-1.94-1.61-3.41-4.75-4.66c-3.97-1.57-8.96-4.67-8.95-10.2c0-4.57,3.56-9.18,10.68-9.17
			c4.8,0,8.5,2.45,9.88,3.47c0.55,0.32,0.46,1.15,0.27,1.48l-2.36,3.55c-0.32,0.51-1.16,0.92-1.57,0.6
			c-0.42-0.23-3.78-2.77-6.6-2.77c-1.66,0-2.91,1.1-2.91,2.35c0,1.71,1.38,3,5.03,4.48c3.6,1.43,9.33,4.25,9.32,10.53
			c0,4.75-4.12,9.55-10.91,9.54c-6-0.01-9.33-2.5-10.39-3.56C159.58,196.41,159.44,196.23,159.81,195.58z"/>
		<path class="st0" d="M190.6,174.48l-6.6-0.01c-0.51,0-0.88-0.42-0.88-0.88l0-5.03c0-0.46,0.37-0.88,0.88-0.88l20.51,0.02
			c0.51,0,0.88,0.42,0.88,0.88l0,5.03c0,0.46-0.37,0.88-0.88,0.88l-6.6-0.01l-0.02,24.63c0,0.46-0.42,0.88-0.88,0.88l-5.54,0
			c-0.46,0-0.88-0.42-0.88-0.88L190.6,174.48z"/>
	</g>
	<g>
		<g>
			<path class="st2" d="M27.84,134.36c4.17,0,7.51,3.36,7.5,7.53c0,4.17-3.34,7.48-7.52,7.47c-4.17,0-7.48-3.32-7.48-7.49
				C20.35,137.71,23.67,134.36,27.84,134.36z M27.83,146.03c2.29,0,4.17-1.87,4.17-4.14c0-2.29-1.87-4.19-4.17-4.19
				c-2.27,0-4.15,1.89-4.15,4.18C23.68,144.15,25.56,146.03,27.83,146.03z"/>
			<path class="st2" d="M55.4,134.99c0-0.21,0.17-0.4,0.4-0.4l6.24,0.01c2.5,0,4.54,2.02,4.54,4.5c0,1.92-1.27,3.46-3.09,4.18
				l2.85,5.29c0.15,0.27,0,0.6-0.35,0.6l-2.77,0c-0.17,0-0.29-0.1-0.33-0.19l-2.77-5.52l-1.44,0l0,5.31c0,0.21-0.19,0.4-0.4,0.4
				l-2.48,0c-0.23,0-0.4-0.19-0.4-0.4L55.4,134.99z M61.76,140.83c0.85,0,1.59-0.79,1.59-1.66c0-0.88-0.73-1.58-1.58-1.58l-3.09,0
				l0,3.25L61.76,140.83z"/>
			<path class="st2" d="M86.84,135.02c0-0.21,0.17-0.4,0.4-0.4l8.64,0.01c0.23,0,0.4,0.19,0.39,0.4l0,2.27c0,0.21-0.17,0.4-0.4,0.4
				l-5.78,0l0,2.58l4.76,0c0.21,0,0.4,0.19,0.4,0.4l0,2.27c0,0.23-0.19,0.4-0.4,0.4l-4.76,0l0,2.81l5.78,0c0.23,0,0.4,0.19,0.39,0.4
				l0,2.27c0,0.21-0.17,0.4-0.4,0.4l-8.64-0.01c-0.23,0-0.4-0.19-0.4-0.4L86.84,135.02z"/>
			<path class="st2" d="M122.99,134.47c1.75,0,3.67,0.73,5.09,1.96c0.19,0.15,0.21,0.4,0.04,0.56l-1.65,1.75
				c-0.17,0.15-0.4,0.15-0.56,0.02c-0.79-0.73-1.71-1-2.73-1c-2.27,0-4.11,1.91-4.11,4.2c0,2.27,1.85,4.15,4.13,4.15
				c0.61,0,1.23-0.08,1.86-0.33l0-1.21l-1.31,0c-0.23,0-0.39-0.17-0.39-0.38l0-2.06c0-0.23,0.17-0.4,0.4-0.4l4.19,0
				c0.21,0,0.38,0.19,0.38,0.4l0.02,5.6c0,0.1-0.08,0.27-0.17,0.33c0,0-2.15,1.35-5.17,1.35c-4.15,0-7.48-3.3-7.48-7.46
				C115.5,137.79,118.84,134.46,122.99,134.47z"/>
			<path class="st2" d="M155.25,134.47c4.17,0,7.51,3.36,7.5,7.53c0,4.17-3.34,7.48-7.52,7.47c-4.17,0-7.48-3.32-7.48-7.49
				C147.76,137.82,151.08,134.47,155.25,134.47z M155.24,146.14c2.29,0,4.17-1.87,4.17-4.14c0-2.29-1.87-4.19-4.17-4.19
				c-2.27,0-4.15,1.89-4.15,4.18C151.09,144.26,152.97,146.14,155.24,146.14z"/>
			<path class="st2" d="M182.8,134.87c0-0.21,0.19-0.38,0.4-0.38h0.52l8.32,8.01h0.02l0.01-7.4c0-0.21,0.17-0.4,0.4-0.4l2.5,0
				c0.21,0,0.4,0.19,0.39,0.4l-0.01,14.02c0,0.21-0.19,0.38-0.4,0.37h-0.33c-0.06,0-0.23-0.06-0.27-0.1l-8.23-8.28h-0.02l-0.01,7.77
				c0,0.21-0.17,0.4-0.4,0.4l-2.48,0c-0.21,0-0.4-0.19-0.4-0.4L182.8,134.87z"/>
		</g>
	</g>
	<g>
		<path class="st0" d="M10.39,256.24l2.07-3.64c0.35-0.57,1.19-0.48,1.49-0.26c0.18,0.09,3.34,2.42,6.24,2.42
			c1.76,0,3.03-1.09,3.03-2.63c0-1.84-1.53-3.25-4.52-4.44c-3.78-1.5-8.52-4.44-8.52-9.71c0-4.34,3.39-8.73,10.16-8.72
			c4.57,0,8.08,2.33,9.4,3.3c0.53,0.31,0.44,1.1,0.26,1.4l-2.24,3.38c-0.31,0.48-1.1,0.88-1.49,0.57c-0.39-0.22-3.6-2.64-6.28-2.64
			c-1.58,0-2.77,1.05-2.77,2.24c0,1.62,1.32,2.85,4.78,4.26c3.43,1.36,8.87,4.04,8.87,10.01c0,4.52-3.92,9.08-10.38,9.08
			c-5.71,0-8.87-2.38-9.88-3.39C10.17,257.03,10.04,256.85,10.39,256.24z"/>
		<path class="st0" d="M49.01,229.28c4.39,0,7.64,1.37,10.63,4.09c0.4,0.35,0.39,0.88,0.04,1.23l-3.43,3.55
			c-0.31,0.31-0.79,0.31-1.1,0c-1.63-1.45-3.78-2.24-5.93-2.24c-4.96,0-8.61,4.12-8.62,9.03c0,4.87,3.68,8.91,8.65,8.92
			c2.07,0,4.31-0.74,5.89-2.1c0.31-0.26,0.88-0.26,1.14,0.05l3.42,3.65c0.31,0.31,0.26,0.88-0.05,1.18
			c-2.99,2.89-6.77,4.25-10.68,4.25c-8.79-0.01-15.86-6.99-15.85-15.77C33.14,236.33,40.22,229.27,49.01,229.28z"/>
		<path class="st0" d="M63.82,230.57c0-0.44,0.4-0.83,0.84-0.83l5.23,0c0.48,0,0.83,0.4,0.83,0.83l-0.01,11.06l12.57,0.01
			l0.01-11.06c0-0.44,0.35-0.83,0.84-0.83l5.23,0c0.44,0,0.83,0.4,0.83,0.83l-0.02,29.05c0,0.44-0.4,0.83-0.84,0.83l-5.23,0
			c-0.48,0-0.83-0.4-0.83-0.83l0.01-11.54l-12.57-0.01l-0.01,11.54c0,0.44-0.35,0.83-0.84,0.83l-5.23,0c-0.44,0-0.83-0.4-0.83-0.83
			L63.82,230.57z"/>
		<path class="st0" d="M110.48,229.33c8.79,0.01,15.81,7.08,15.8,15.86c-0.01,8.78-7.04,15.75-15.83,15.74
			c-8.79-0.01-15.77-6.99-15.76-15.77C94.7,236.38,101.69,229.32,110.48,229.33z M110.46,253.91c4.83,0,8.79-3.94,8.8-8.73
			c0-4.83-3.95-8.82-8.78-8.83c-4.79,0-8.75,3.99-8.75,8.81C101.72,249.95,105.67,253.9,110.46,253.91z"/>
		<path class="st0" d="M144.64,229.36c8.79,0.01,15.81,7.08,15.8,15.86c-0.01,8.78-7.04,15.75-15.83,15.74
			c-8.79-0.01-15.77-6.99-15.76-15.77C128.86,236.41,135.85,229.35,144.64,229.36z M144.62,253.94c4.83,0,8.79-3.94,8.8-8.73
			c0-4.83-3.95-8.82-8.78-8.83c-4.79,0-8.75,3.99-8.75,8.81C135.88,249.98,139.83,253.93,144.62,253.94z"/>
		<path class="st0" d="M165,230.65c0-0.44,0.35-0.83,0.84-0.83l5.23,0c0.44,0,0.83,0.4,0.83,0.83l-0.02,23.43l10.46,0.01
			c0.48,0,0.83,0.4,0.83,0.83l0,4.78c0,0.44-0.35,0.83-0.84,0.83l-16.52-0.01c-0.48,0-0.83-0.4-0.83-0.83L165,230.65z"/>
		<path class="st0" d="M185.54,256.38l2.07-3.64c0.35-0.57,1.19-0.48,1.49-0.26c0.18,0.09,3.34,2.42,6.24,2.42
			c1.76,0,3.03-1.09,3.03-2.63c0-1.84-1.53-3.25-4.52-4.44c-3.78-1.5-8.52-4.44-8.52-9.71c0-4.34,3.39-8.73,10.16-8.72
			c4.57,0,8.08,2.33,9.4,3.3c0.53,0.31,0.44,1.1,0.26,1.4l-2.24,3.38c-0.31,0.48-1.1,0.88-1.49,0.57c-0.39-0.22-3.6-2.64-6.28-2.64
			c-1.58,0-2.77,1.05-2.77,2.24c0,1.62,1.32,2.85,4.78,4.26c3.43,1.36,8.87,4.04,8.87,10.01c0,4.52-3.92,9.08-10.38,9.08
			c-5.71,0-8.87-2.38-9.88-3.39C185.31,257.17,185.18,257,185.54,256.38z"/>
	</g>
	<rect x="126.07" y="212.67" class="st1" width="80.93" height="2.47"/>
	<rect x="10.92" y="212.67" class="st1" width="80.93" height="2.47"/>
	<g>
		<path class="st0" d="M98.81,210.15c-0.12,0-0.2-0.03-0.25-0.08c-0.05-0.05-0.08-0.12-0.08-0.19c0-0.11,0.05-0.23,0.16-0.34
			c0.11-0.11,0.27-0.16,0.48-0.16h0.98c0.09-0.25,0.17-0.5,0.24-0.75c0.08-0.25,0.15-0.49,0.23-0.73c0.2-0.55,0.45-1.08,0.76-1.59
			c0.31-0.51,0.68-0.96,1.1-1.35c0.42-0.39,0.91-0.7,1.45-0.93c0.54-0.23,1.14-0.35,1.8-0.35c0.28,0,0.55,0.04,0.8,0.13
			c0.26,0.08,0.49,0.21,0.69,0.37c0.2,0.16,0.36,0.36,0.48,0.59c0.12,0.23,0.18,0.5,0.18,0.79s-0.05,0.55-0.15,0.77
			c-0.1,0.22-0.23,0.4-0.4,0.55c-0.16,0.15-0.35,0.26-0.55,0.33c-0.2,0.07-0.41,0.11-0.61,0.11c-0.17,0-0.33-0.03-0.49-0.08
			c-0.16-0.05-0.3-0.13-0.42-0.23c-0.12-0.1-0.22-0.23-0.29-0.39c-0.07-0.15-0.11-0.33-0.11-0.53c0-0.43,0.1-0.79,0.29-1.09
			s0.43-0.56,0.7-0.77c-0.05-0.02-0.11-0.03-0.16-0.04c-0.06,0-0.11,0-0.16,0c-0.25,0-0.47,0.06-0.67,0.19
			c-0.19,0.13-0.37,0.3-0.51,0.5c-0.15,0.21-0.28,0.44-0.4,0.7c-0.12,0.26-0.22,0.53-0.3,0.79c-0.08,0.27-0.16,0.53-0.22,0.77
			c-0.06,0.25-0.12,0.46-0.18,0.65l-0.44,1.58h2.03c0.12,0,0.2,0.03,0.25,0.08c0.05,0.05,0.08,0.12,0.08,0.19
			c0,0.11-0.06,0.23-0.17,0.34c-0.11,0.11-0.27,0.16-0.48,0.16h-1.89c-0.18,0.77-0.37,1.54-0.57,2.32
			c-0.19,0.78-0.41,1.55-0.64,2.31c-0.23,0.76-0.49,1.51-0.76,2.24s-0.6,1.42-0.95,2.09s-0.76,1.28-1.2,1.87
			c-0.44,0.58-0.95,1.11-1.51,1.58c-0.07,0.05-0.16,0.12-0.24,0.19c-0.09,0.07-0.18,0.14-0.27,0.2c-0.09,0.06-0.19,0.12-0.29,0.16
			c-0.1,0.04-0.19,0.07-0.28,0.07c-0.12,0-0.17-0.05-0.17-0.14c0-0.03,0-0.07,0.01-0.1c0.01-0.03,0.02-0.06,0.03-0.1
			c0.33-0.43,0.64-0.94,0.92-1.53c0.28-0.59,0.53-1.22,0.77-1.91c0.23-0.68,0.45-1.41,0.66-2.18c0.21-0.77,0.41-1.55,0.61-2.34
			c0.2-0.8,0.39-1.59,0.58-2.39c0.19-0.8,0.39-1.57,0.6-2.33H98.81z"/>
		<path class="st0" d="M106.51,219.37c-0.54,0-1.01-0.1-1.4-0.29c-0.39-0.19-0.71-0.45-0.97-0.78c-0.25-0.33-0.44-0.71-0.56-1.15
			c-0.12-0.44-0.18-0.91-0.18-1.4c0-0.51,0.06-1.03,0.18-1.58c0.12-0.54,0.29-1.07,0.52-1.59c0.22-0.51,0.5-1,0.83-1.46
			c0.33-0.46,0.7-0.86,1.12-1.21c0.41-0.34,0.87-0.61,1.36-0.82c0.49-0.2,1.02-0.3,1.58-0.3c0.54,0,1.01,0.1,1.4,0.29
			c0.39,0.19,0.71,0.45,0.97,0.78c0.25,0.33,0.44,0.71,0.56,1.15c0.12,0.44,0.18,0.9,0.18,1.4c0,0.51-0.06,1.03-0.18,1.58
			c-0.12,0.54-0.3,1.07-0.52,1.59c-0.23,0.52-0.5,1-0.83,1.46c-0.33,0.46-0.7,0.86-1.11,1.21c-0.41,0.34-0.87,0.62-1.36,0.82
			C107.59,219.27,107.06,219.37,106.51,219.37z M108.99,209.55c-0.2,0-0.41,0.13-0.64,0.39c-0.23,0.26-0.46,0.6-0.68,1.03
			c-0.22,0.42-0.44,0.91-0.65,1.45c-0.21,0.55-0.4,1.1-0.56,1.67c-0.16,0.57-0.29,1.12-0.39,1.66c-0.1,0.54-0.14,1.02-0.14,1.44
			c0,0.41,0.05,0.73,0.16,0.98c0.11,0.25,0.28,0.37,0.52,0.37c0.2,0,0.41-0.13,0.64-0.39c0.23-0.26,0.46-0.6,0.68-1.03
			c0.22-0.42,0.44-0.91,0.65-1.46c0.21-0.55,0.4-1.1,0.56-1.67c0.16-0.57,0.29-1.12,0.39-1.66c0.1-0.54,0.14-1.02,0.14-1.44
			c0-0.41-0.05-0.73-0.16-0.98C109.4,209.67,109.23,209.55,108.99,209.55z"/>
		<path class="st0" d="M119.68,208.98c0.24,0,0.49,0.04,0.72,0.13c0.24,0.08,0.45,0.21,0.63,0.37c0.18,0.16,0.33,0.36,0.44,0.61
			c0.11,0.24,0.17,0.51,0.17,0.82c0,0.29-0.05,0.55-0.15,0.76c-0.1,0.22-0.23,0.4-0.4,0.54c-0.16,0.15-0.35,0.26-0.55,0.33
			c-0.2,0.08-0.41,0.11-0.61,0.11c-0.18,0-0.34-0.03-0.5-0.08c-0.16-0.05-0.3-0.13-0.42-0.23c-0.12-0.11-0.22-0.23-0.29-0.39
			c-0.07-0.15-0.11-0.33-0.11-0.53c0-0.43,0.1-0.79,0.3-1.08c0.2-0.3,0.43-0.55,0.7-0.77c-0.3,0.03-0.58,0.15-0.85,0.36
			c-0.27,0.21-0.52,0.49-0.76,0.84c-0.24,0.35-0.46,0.74-0.67,1.2c-0.21,0.45-0.41,0.92-0.59,1.42c-0.18,0.49-0.34,1-0.49,1.52
			c-0.15,0.52-0.28,1.01-0.39,1.49c-0.12,0.47-0.21,0.92-0.29,1.33c-0.08,0.41-0.14,0.77-0.19,1.06c-0.1,0.05-0.21,0.1-0.35,0.14
			c-0.14,0.05-0.28,0.09-0.42,0.13c-0.15,0.04-0.29,0.07-0.45,0.1c-0.15,0.03-0.29,0.04-0.41,0.04c-0.14,0-0.26-0.02-0.38-0.05
			c-0.12-0.03-0.22-0.09-0.31-0.17c-0.09-0.08-0.16-0.19-0.2-0.33c-0.05-0.13-0.07-0.3-0.07-0.5c0-0.18,0.03-0.41,0.08-0.71
			c0.05-0.3,0.12-0.62,0.2-0.99c0.08-0.36,0.17-0.75,0.27-1.16c0.1-0.41,0.21-0.82,0.32-1.23c0.11-0.41,0.21-0.8,0.32-1.19
			s0.19-0.74,0.27-1.06c0.08-0.32,0.15-0.59,0.2-0.82c0.05-0.23,0.08-0.38,0.08-0.47c-0.18,0.01-0.36,0.09-0.55,0.22
			c-0.19,0.14-0.37,0.3-0.54,0.49c-0.17,0.19-0.33,0.39-0.47,0.61c-0.14,0.21-0.25,0.4-0.33,0.57c-0.08,0-0.15-0.02-0.22-0.07
			c-0.07-0.04-0.11-0.12-0.11-0.24c0-0.14,0.05-0.32,0.14-0.52c0.09-0.2,0.22-0.42,0.38-0.64c0.16-0.22,0.36-0.44,0.58-0.66
			c0.22-0.22,0.47-0.41,0.72-0.58c0.26-0.17,0.53-0.31,0.82-0.42c0.29-0.11,0.58-0.16,0.88-0.16c0.16,0,0.33,0.02,0.49,0.07
			c0.17,0.04,0.32,0.11,0.45,0.21c0.13,0.1,0.24,0.22,0.33,0.36c0.08,0.15,0.13,0.32,0.13,0.52c0,0.09,0,0.17-0.01,0.26
			c-0.01,0.09-0.02,0.17-0.03,0.27c0.15-0.25,0.31-0.49,0.49-0.71c0.18-0.22,0.37-0.42,0.58-0.58c0.21-0.17,0.43-0.3,0.66-0.4
			C119.18,209.03,119.43,208.98,119.68,208.98z"/>
	</g>
</g>
</svg>
