<svg xmlns="http://www.w3.org/2000/svg" viewBox="0 0 132.83 118.33"><defs><style>.cls-1,.cls-2{fill:none;stroke:#4b2b12;stroke-width:2px;}.cls-1{stroke-miterlimit:10;}.cls-2{stroke-linecap:round;stroke-linejoin:round;}</style></defs><g id="Layer_2" data-name="Layer 2"><g id="Layer_1-2" data-name="Layer 1"><path class="cls-1" d="M49.21,35.68c-.48-1-.68-1.51-1-2.19A22.38,22.38,0,1,1,88,33.71c-.24.46-.46.95-.68,1.42"/><polyline class="cls-1" points="88.96 31.69 68.17 75 48.03 33.17"/><circle class="cls-1" cx="68.17" cy="23.47" r="11.52"/><line class="cls-2" x1="71" y1="70.34" x2="125.83" y2="70.34"/><line class="cls-2" x1="9.67" y1="70.34" x2="65.5" y2="70.34"/><line class="cls-2" x1="5" y1="95.17" x2="126.17" y2="95.17"/><line class="cls-2" x1="82.83" y1="45.51" x2="128.17" y2="45.51"/><line class="cls-2" x1="13" y1="45.51" x2="54" y2="45.51"/><line class="cls-2" x1="28.42" y1="116.75" x2="28.42" y2="26.33"/><line class="cls-2" x1="53.92" y1="116.58" x2="53.92" y2="46.17"/><line class="cls-2" x1="79.58" y1="116.75" x2="79.58" y2="51.33"/><line class="cls-2" x1="105.08" y1="116.58" x2="105.08" y2="29.17"/><path class="cls-2" d="M48.32,35.61c-.51.12,0,.25-.49.39-2.33.67-5.16,2-8.16,1.83s-4.84-.16-5.84-3-.33-6.33-4.16-8.33-5.5-4.17-8-4.5-6.34,0-8.17-.17c0,0,1.67,12.67-.17,17.17s-1.5,5.17-1.83,9.67S9,63.67,9,68,8,83.33,7.33,86,2.83,99.83,1,105.17c0,0,6.33,8.5,6.33,12.16H126.17V77.67s-.5-6.17.5-7.84-2-.5-2.84-2.83-3.66-.83-2.5-5.17,2.67-3.66,4.5-6.5,0-3.66,2-7.5,4-7.83,4-10a9,9,0,0,0-3.33-7.33c-2.83-2.33-4.5-2.83-8-2.83S96.17,29.17,93.33,29a5.84,5.84,0,0,0-3.48,1.1"/></g></g></svg>