<svg xmlns="http://www.w3.org/2000/svg" width="15" height="10.5" viewBox="0 0 15 10.5">
  <path id="Icon_awesome-box-open" data-name="Icon awesome-box-open" d="M9.975,7.5A1.136,1.136,0,0,1,9,6.95L7.5,4.451l-1.5,2.5A1.14,1.14,0,0,1,5.02,7.5a1.078,1.078,0,0,1-.312-.045L1.5,6.537v4.172a.748.748,0,0,0,.567.727L7.132,12.7a1.523,1.523,0,0,0,.727,0l5.072-1.268a.752.752,0,0,0,.567-.727V6.537l-3.211.916A1.078,1.078,0,0,1,9.975,7.5Zm4.982-2.63L13.75,2.459a.383.383,0,0,0-.391-.209L7.5,3,9.647,6.563a.385.385,0,0,0,.434.171L14.718,5.41a.386.386,0,0,0,.239-.541ZM1.245,2.459.038,4.868a.382.382,0,0,0,.237.539L4.913,6.732a.385.385,0,0,0,.434-.171L7.5,3,1.634,2.251A.383.383,0,0,0,1.245,2.459Z" transform="translate(0.003 -2.247)" fill="#4d2908"/>
</svg>
