<svg xmlns="http://www.w3.org/2000/svg" width="15" height="12" viewBox="0 0 15 12">
  <path id="Icon_awesome-truck-loading" data-name="Icon awesome-truck-loading" d="M1.177,8.8a.376.376,0,0,0,.459.265L6.708,7.709a.376.376,0,0,0,.265-.459L5.808,2.9a.376.376,0,0,0-.459-.265l-1.809.487L4.12,5.3l-1.448.387L2.091,3.511.279,4a.376.376,0,0,0-.265.459ZM9,0a.749.749,0,0,0-.75.75V8.334L.138,10.547a.186.186,0,0,0-.131.23l.3,1.085a.186.186,0,0,0,.23.131L9.759,9.476A2.621,2.621,0,0,0,15,9.375V0Zm3.375,10.5A1.125,1.125,0,1,1,13.5,9.375,1.125,1.125,0,0,1,12.375,10.5Z" transform="translate(0)" fill="#4d2908"/>
</svg>
