<svg xmlns="http://www.w3.org/2000/svg" width="8" height="14.145" viewBox="0 0 8 14.145">
  <path id="Icon_material-attach-money" data-name="Icon material-attach-money" d="M13.786,10.708c-1.784-.464-2.358-.943-2.358-1.69,0-.857.794-1.454,2.122-1.454,1.4,0,1.917.668,1.965,1.65h1.737A3.133,3.133,0,0,0,14.73,6.221V4.5H12.372V6.2c-1.525.33-2.75,1.32-2.75,2.837,0,1.815,1.5,2.719,3.694,3.246,1.965.472,2.358,1.163,2.358,1.894,0,.542-.385,1.407-2.122,1.407-1.619,0-2.255-.723-2.342-1.65H9.48a3.292,3.292,0,0,0,2.892,3.01v1.705H14.73v-1.69c1.532-.291,2.75-1.179,2.75-2.79C17.48,11.934,15.57,11.172,13.786,10.708Z" transform="translate(-9.48 -4.5)" fill="#4d2908"/>
</svg>
