<svg xmlns="http://www.w3.org/2000/svg" width="81.655" height="45.432" viewBox="0 0 81.655 45.432">
  <g id="Group_7" data-name="Group 7" transform="translate(-508.63 -566.876)">
    <path id="Path_17" data-name="Path 17" d="M561.546,581.452a12.812,12.812,0,0,1,.817-1.693c.8-1.275,2.257-3.37,2.652-4.216s2.4-3.824,3.514-5.589-.375-2.015-1.184-2.251-3.035.692-4.45,1.855-2.935,4.448-2.935,4.448a28.5,28.5,0,0,0-3.747,5.307s-.532.425-1.117.928" fill="none" stroke="#4d2908" stroke-linecap="round" stroke-linejoin="round" stroke-width="1.5"/>
    <path id="Path_18" data-name="Path 18" d="M571.716,579.7a10.543,10.543,0,0,1,.572-1.36c.617-.981.841-2.208,1.4-3.091s2.136-4.266,2.629-5.051-1.232-2.827-3.1-1.813-4.358,4.1-5.16,5.376a15.134,15.134,0,0,0-1.073,1.924,26.42,26.42,0,0,0-3.06,5.489" fill="none" stroke="#4d2908" stroke-linecap="round" stroke-linejoin="round" stroke-width="1.5"/>
    <path id="Path_19" data-name="Path 19" d="M559.479,591.307c.6.9,1.465,2.158,2.414,3.344,0,0,2.1-1.4,2.921-1.925a14.551,14.551,0,0,0,2.947-2.184,7.922,7.922,0,0,0,.591-1.343" fill="none" stroke="#4d2908" stroke-linecap="round" stroke-linejoin="round" stroke-width="1.5"/>
    <path id="Path_20" data-name="Path 20" d="M568.677,602.191a41.038,41.038,0,0,0,5.082-2.148c.576-.509.718-.163,1.423-1.773s2.229-5.422,2.479-5.983,1.46-4.932,1.766-5.663a4.514,4.514,0,0,0,.4-1.855c0-.566,1.033-7.355,1.146-8.1s-1.807-2.675-4,.408a24.4,24.4,0,0,0-1.768,2.966" fill="none" stroke="#4d2908" stroke-linecap="round" stroke-linejoin="round" stroke-width="1.5"/>
    <path id="Path_21" data-name="Path 21" d="M571.81,588.249a45.012,45.012,0,0,1-1.945,4.523c-.6.956-.886.674-.886.674s-4.711,1.861-5.453,2.062-.749.1-.749.1" fill="none" stroke="#4d2908" stroke-linecap="round" stroke-linejoin="round" stroke-width="1.5"/>
    <path id="Path_22" data-name="Path 22" d="M525.053,597.076a20.8,20.8,0,0,1,3.826.247c7.777,1.5,23.492,9.642,25.276,10.558s1.719,1.184,6.747.857c0,0,9.4,2.521,11.089,2.765a4.779,4.779,0,0,0,3.382-.644,40.772,40.772,0,0,0,7.138-3.927l6.968-5.777s.469-1.4-1.509-1.924a7.214,7.214,0,0,0-6.612,1.538,7.632,7.632,0,0,0-1.731,1.528,11.447,11.447,0,0,0-6.156,1.876,1.285,1.285,0,0,0-.976,0s-3.76-2.262-6.494-2.647a25.141,25.141,0,0,0-2.8-4.529,15.535,15.535,0,0,0-1.756-3c-.908-1.084-2.106-2.607-1.944-2.864a6.577,6.577,0,0,1,4.839-1.576,21.339,21.339,0,0,0,7.592-1.383c2.447-.873,6.719-2.445,5.063-6.257-.828-1.906-3.209-2.262-5.382-2.14a19.876,19.876,0,0,0-4.14.719,29.746,29.746,0,0,1-3.76.919,15.2,15.2,0,0,1-5.764-.135c-3.179-.819-3.347-1.7-8.468-3.016-6.332-1.635-12.411-.826-13.748-.333s-5,2.4-6.558,2.188c-.416-.057-1.5-.036-3.466-.168" fill="none" stroke="#4d2908" stroke-linecap="round" stroke-linejoin="round" stroke-width="1.5"/>
    <path id="Path_23" data-name="Path 23" d="M567.641,586.994a4.1,4.1,0,0,1-.655-1.927,29.871,29.871,0,0,0-.819-3.085" fill="none" stroke="#4d2908" stroke-linecap="round" stroke-linejoin="round" stroke-width="1.5"/>
    <path id="Path_24" data-name="Path 24" d="M563.617,582.663a7.355,7.355,0,0,0,.277,2.189,6.408,6.408,0,0,0,1.93,2.527" fill="none" stroke="#4d2908" stroke-linecap="round" stroke-linejoin="round" stroke-width="1.5"/>
    <path id="Path_25" data-name="Path 25" d="M565.106,582.975a6.162,6.162,0,0,0,.278,1.429,4.559,4.559,0,0,0,.61,1.446" fill="none" stroke="#4d2908" stroke-linecap="round" stroke-linejoin="round" stroke-width="1.5"/>
    <path id="Path_26" data-name="Path 26" d="M570.328,581.534a6.162,6.162,0,0,0,1.189,4.733,8.859,8.859,0,0,0,4.733-1.189c1.984-1.33-.175-5.775-2.087-5.061S570.328,581.534,570.328,581.534Z" fill="none" stroke="#4d2908" stroke-linecap="round" stroke-linejoin="round" stroke-width="1.5"/>
    <path id="Path_27" data-name="Path 27" d="M572.574,595.494c-1.779-2.555-3.289-2.247-3.289-2.247" fill="none" stroke="#4d2908" stroke-linecap="round" stroke-linejoin="round" stroke-width="1.5"/>
    <path id="Path_28" data-name="Path 28" d="M571.4,596.962a32.581,32.581,0,0,1-2.453-3.246" fill="none" stroke="#4d2908" stroke-linecap="round" stroke-linejoin="round" stroke-width="1.5"/>
    <path id="Path_29" data-name="Path 29" d="M561.6,574.766a6.847,6.847,0,0,0-1.644-.76" fill="none" stroke="#4d2908" stroke-linecap="round" stroke-linejoin="round" stroke-width="1.5"/>
    <path id="Path_30" data-name="Path 30" d="M558.837,580.689a3.7,3.7,0,0,0-2.615-1.337" fill="none" stroke="#4d2908" stroke-linecap="round" stroke-linejoin="round" stroke-width="1.5"/>
    <path id="Path_31" data-name="Path 31" d="M573.839,607.982c.556-3.064-.459-3.815-.459-3.815" fill="none" stroke="#4d2908" stroke-linecap="round" stroke-linejoin="round" stroke-width="1.5"/>
    <path id="Path_32" data-name="Path 32" d="M572.466,607.791a23.777,23.777,0,0,1,.077-3.609l.185-.1" fill="none" stroke="#4d2908" stroke-linecap="round" stroke-linejoin="round" stroke-width="1.5"/>
    <path id="Path_33" data-name="Path 33" d="M580.032,606.129c.557-3.064-.459-3.814-.459-3.814" fill="none" stroke="#4d2908" stroke-linecap="round" stroke-linejoin="round" stroke-width="1.5"/>
    <path id="Path_34" data-name="Path 34" d="M513.312,601.519c3.134-.093,11.309.316,11.309.316l1.207-24.96s-14.55-2.627-16.328-2.918" fill="none" stroke="#4d2908" stroke-linecap="round" stroke-linejoin="round" stroke-width="1.5"/>
  </g>
</svg>
