<svg xmlns="http://www.w3.org/2000/svg" width="15" height="12" viewBox="0 0 15 12">
  <path id="Icon_awesome-school" data-name="Icon awesome-school" d="M0,5.25v6.375A.375.375,0,0,0,.375,12H2.25V4.5H.75A.75.75,0,0,0,0,5.25ZM8.438,4.125H7.875V3.187A.187.187,0,0,0,7.688,3H7.313a.187.187,0,0,0-.187.188v1.5a.187.187,0,0,0,.188.188H8.438a.187.187,0,0,0,.188-.187V4.312A.187.187,0,0,0,8.438,4.125Zm3.229-1.5L7.916.126a.75.75,0,0,0-.832,0l-3.75,2.5A.75.75,0,0,0,3,3.25V12H6V8.625a.375.375,0,0,1,.375-.375h2.25A.375.375,0,0,1,9,8.625V12h3V3.25a.75.75,0,0,0-.334-.624ZM7.5,6A1.875,1.875,0,1,1,9.375,4.125,1.875,1.875,0,0,1,7.5,6Zm6.75-1.5h-1.5V12h1.875A.375.375,0,0,0,15,11.625V5.25A.75.75,0,0,0,14.25,4.5Z" fill="#4d2908"/>
</svg>
