<svg xmlns="http://www.w3.org/2000/svg" width="15" height="15" viewBox="0 0 15 15">
  <path id="Icon_material-language" data-name="Icon material-language" d="M10.493,3A7.5,7.5,0,1,0,18,10.5,7.5,7.5,0,0,0,10.493,3Zm5.2,4.5H13.478a11.737,11.737,0,0,0-1.035-2.67A6.022,6.022,0,0,1,15.69,7.5ZM10.5,4.53A10.565,10.565,0,0,1,11.932,7.5H9.068A10.565,10.565,0,0,1,10.5,4.53ZM4.695,12a5.867,5.867,0,0,1,0-3H7.23a12.386,12.386,0,0,0-.105,1.5A12.386,12.386,0,0,0,7.23,12Zm.615,1.5H7.523a11.737,11.737,0,0,0,1.035,2.67A5.99,5.99,0,0,1,5.31,13.5Zm2.213-6H5.31A5.99,5.99,0,0,1,8.557,4.83,11.737,11.737,0,0,0,7.523,7.5ZM10.5,16.47A10.565,10.565,0,0,1,9.068,13.5h2.865A10.565,10.565,0,0,1,10.5,16.47ZM12.255,12H8.745a11.035,11.035,0,0,1-.12-1.5A10.939,10.939,0,0,1,8.745,9h3.51a10.939,10.939,0,0,1,.12,1.5A11.035,11.035,0,0,1,12.255,12Zm.188,4.17a11.737,11.737,0,0,0,1.035-2.67H15.69a6.022,6.022,0,0,1-3.247,2.67ZM13.77,12a12.386,12.386,0,0,0,.1-1.5,12.387,12.387,0,0,0-.1-1.5h2.535a5.867,5.867,0,0,1,0,3Z" transform="translate(-3 -3)" fill="#4d2908"/>
</svg>
